<?xml version="1.0" encoding="utf-8"?>
<!-- Generator: Adobe Illustrator 25.3.1, SVG Export Plug-In . SVG Version: 6.00 Build 0)  -->
<svg version="1.1" xmlns="http://www.w3.org/2000/svg" xmlns:xlink="http://www.w3.org/1999/xlink" x="0px" y="0px"
	 viewBox="0 0 232.16 115.87" style="enable-background:new 0 0 232.16 115.87;" xml:space="preserve">
<style type="text/css">
	.st0{display:none;}
	.st1{fill:url(#SVGID_1_);}
	.st2{opacity:0.56;fill:url(#Sky_Gradient_2_);}
	.st3{fill:#95E8CF;}
	.st4{opacity:0.56;fill:url(#Sky_Gradient_3_);}
	.st5{fill:#7B797C;}
	.st6{fill:#FFFFFF;}
	.st7{fill:#C9C5CF;}
	.st8{fill:#BEBBBF;}
	.st9{fill:url(#SVGID_2_);stroke:#E3E1E5;stroke-miterlimit:10;}
	.st10{fill:url(#SVGID_3_);stroke:#E3E1E5;stroke-miterlimit:10;}
	.st11{fill:url(#SVGID_4_);stroke:#E3E1E5;stroke-miterlimit:10;}
	.st12{fill:#D3D2D6;}
	.st13{fill:#E7E4E9;stroke:#F6F5F5;stroke-miterlimit:10;}
	.st14{fill:#E7E4E9;}
	.st15{opacity:0.69;fill:#FFFFFF;}
	.st16{fill:#EFBE34;}
	.st17{fill:#C60029;}
	.st18{fill:#A20024;}
	.st19{fill:#E0AD30;}
	.st20{clip-path:url(#SVGID_6_);fill:#1D75BA;}
	.st21{opacity:0.36;fill:#E4F9F2;}
	.st22{fill:#00AEEF;}
	.st23{fill:#081F23;}
	.st24{fill:#83B5A5;}
	.st25{fill:#1C2C2D;}
	.st26{opacity:0.07;}
	.st27{fill:#E4F9F2;}
	.st28{opacity:0.94;fill:#1C2626;}
	.st29{opacity:0.05;}
	.st30{fill:#1B5668;}
	.st31{fill:#0F343D;}
	.st32{fill:#B5BB6A;}
	.st33{fill:#979952;}
	.st34{fill:#565E66;}
	.st35{fill:#475056;}
	.st36{fill:#A57C28;}
	.st37{fill:#A6ACB2;}
	.st38{fill:#184954;}
	.st39{fill:none;stroke:#0F404C;stroke-miterlimit:10;}
	.st40{fill:#1C75BC;}
	.st41{fill:#838451;}
	.st42{fill:#707041;}
	.st43{fill:#164854;}
	.st44{fill:none;stroke:#0B1E1D;stroke-width:4;stroke-miterlimit:10;}
	.st45{opacity:0.35;}
	.st46{fill:#0090D4;}
	.st47{fill:url(#SVGID_7_);}
	.st48{fill:none;stroke:#0E0E0F;stroke-width:0.3;stroke-miterlimit:10;}
	.st49{fill:#6DA3A3;}
	.st50{fill:#1C2626;}
	.st51{fill:#E2AF30;}
	.st52{fill:#F4C762;}
	.st53{fill:#8E9296;}
	.st54{fill:#2A4142;}
	.st55{opacity:0.27;}
	.st56{fill:none;stroke:#FCFCFC;stroke-width:0.75;stroke-miterlimit:10;}
	.st57{opacity:0.18;}
	.st58{fill:none;stroke:#FCFCFC;stroke-width:0.5;stroke-miterlimit:10;}
	.st59{opacity:0.7;fill:none;stroke:#FCFCFC;stroke-width:0.75;stroke-miterlimit:10;}
	.st60{opacity:0.95;}
	.st61{opacity:0.8;}
	.st62{opacity:0.7;}
	.st63{opacity:0.4;}
	.st64{fill:#B3B96A;}
	.st65{fill:#959753;}
	.st66{fill:#174954;}
	.st67{fill:#020202;}
	.st68{fill:#2D2B25;}
	.st69{fill:#C69A2C;}
	.st70{fill:#F1C033;}
	.st71{fill:#E2DDCF;}
	.st72{opacity:0.4;fill:none;stroke:#FFFFFF;stroke-width:0.25;stroke-miterlimit:10;}
	.st73{opacity:0.6;fill:none;stroke:#FFFFFF;stroke-width:0.25;stroke-miterlimit:10;}
	.st74{fill:none;stroke:#020202;stroke-width:0.25;stroke-miterlimit:10;}
	.st75{opacity:0.76;}
	.st76{fill:#CBC7D1;}
	.st77{fill:#BFBDC1;}
	.st78{fill:url(#SVGID_8_);stroke:#E3E1E5;stroke-miterlimit:10;}
	.st79{fill:url(#SVGID_9_);stroke:#E3E1E5;stroke-miterlimit:10;}
	.st80{fill:url(#SVGID_10_);stroke:#E3E1E5;stroke-miterlimit:10;}
	.st81{fill:#D5D4D8;}
	.st82{fill:#E8E6EB;stroke:#F9F7F7;stroke-miterlimit:10;}
	.st83{fill:#E8E6EB;}
	.st84{fill:url(#SVGID_11_);stroke:#E3E1E5;stroke-miterlimit:10;}
	.st85{fill:url(#SVGID_12_);stroke:#E3E1E5;stroke-miterlimit:10;}
	.st86{fill:url(#SVGID_13_);stroke:#E3E1E5;stroke-miterlimit:10;}
	.st87{fill:url(#SVGID_14_);stroke:#E3E1E5;stroke-miterlimit:10;}
	.st88{fill:url(#SVGID_15_);stroke:#E3E1E5;stroke-miterlimit:10;}
	.st89{fill:url(#SVGID_16_);stroke:#E3E1E5;stroke-miterlimit:10;}
	.st90{opacity:0.63;}
	.st91{opacity:0.76;fill:#1C2626;}
	.st92{opacity:0.65;fill:#1C2626;}
	.st93{opacity:0.79;fill:#1C2626;}
	.st94{opacity:0.72;fill:#1C2626;}
	.st95{opacity:0.75;fill:#1C2626;}
	.st96{opacity:0.25;}
	.st97{fill:#F4D790;}
	.st98{fill:#EAB84B;}
	.st99{fill:#2B393A;}
	.st100{fill:#1B5B20;}
	.st101{clip-path:url(#SVGID_18_);fill:#39B54A;}
	.st102{clip-path:url(#SVGID_18_);fill:#00AEEF;}
	.st103{clip-path:url(#SVGID_18_);fill:#1C75BC;}
	.st104{clip-path:url(#SVGID_18_);fill:#6D6E71;}
	.st105{fill:#298432;}
	.st106{opacity:0.39;fill:#081B1E;}
	.st107{fill:#1A661F;}
	.st108{opacity:0.13;}
	.st109{opacity:0.8;fill:#8C202E;}
	.st110{fill:#8BBCAD;}
	.st111{fill:#BCC2C3;}
	.st112{fill:#AAAEB3;}
	.st113{fill:#8D8793;}
	.st114{fill:#BACBD0;}
	.st115{fill:#ADBDC5;}
	.st116{fill:#6D6E78;}
	.st117{fill:#858790;}
	.st118{fill:#909498;}
	.st119{fill:#AD2A55;}
	.st120{fill:url(#SVGID_19_);}
	.st121{fill:url(#SVGID_20_);}
	.st122{fill:url(#SVGID_21_);}
	.st123{fill:#8D888D;}
	.st124{fill:#E8E6EB;stroke:#CEC8C8;stroke-miterlimit:10;}
	.st125{fill:url(#SVGID_22_);}
	.st126{fill:url(#SVGID_23_);}
	.st127{fill:url(#SVGID_24_);}
	.st128{fill:url(#SVGID_25_);}
	.st129{fill:url(#SVGID_26_);}
	.st130{fill:url(#SVGID_27_);}
	.st131{fill:url(#SVGID_28_);}
	.st132{fill:url(#SVGID_29_);}
	.st133{fill:url(#SVGID_30_);}
	.st134{fill:#93ABAE;}
	.st135{fill:none;stroke:#C2CBCC;stroke-miterlimit:10;}
	.st136{fill:none;}
	.st137{fill:none;stroke:#E3E3E3;stroke-miterlimit:10;}
	.st138{fill:#121919;}
	.st139{fill:#315456;}
	.st140{fill:none;stroke:#333335;stroke-miterlimit:10;}
	.st141{fill:#1BCBDD;}
	.st142{fill:#C2CBCC;}
	.st143{fill:#0F1414;}
	.st144{fill:none;stroke:#AD1F2A;stroke-miterlimit:10;}
	.st145{fill:#869293;}
	.st146{fill:#324446;}
	.st147{fill:#233F3F;}
	.st148{fill:#EDEAB7;}
	.st149{fill:#577A7C;}
	.st150{fill:#3B5B5B;}
	.st151{fill:none;stroke:#2B393A;stroke-miterlimit:10;}
	.st152{fill:#5C80B2;}
	.st153{opacity:0.3;fill:#DFF7F7;}
	.st154{opacity:0.3;fill:#FFFFFF;}
	.st155{opacity:0.13;fill:#DFF7F7;}
	.st156{opacity:0.46;}
	.st157{fill:#1A2323;}
	.st158{fill:#7E9799;}
	.st159{fill:#3F5B5B;}
	.st160{opacity:0.2;fill:#DFF7F7;}
	.st161{opacity:0.1;fill:#DFF7F7;}
	.st162{fill:#4A6B93;}
	.st163{fill:#3F5556;}
	.st164{fill:#C49623;}
	.st165{opacity:0.43;fill:#1C2C2D;}
	.st166{opacity:0.12;fill:none;stroke:#1C2C2D;stroke-width:0.5;stroke-miterlimit:10;}
	.st167{opacity:0.11;fill:#DFF7F7;}
	.st168{fill:#F7F5F6;}
	.st169{fill:#AD1F2A;}
	.st170{opacity:0.3;fill:none;stroke:#0E0E0F;stroke-width:0.3;stroke-miterlimit:10;}
	.st171{fill:#869F2B;}
	.st172{fill:#91A9AC;}
	.st173{fill:#3D4B4C;}
	.st174{fill:#EDBC34;}
	.st175{fill:#567A7C;}
	.st176{fill:#FB8E61;}
	.st177{clip-path:url(#SVGID_32_);}
	.st178{fill:none;stroke:#3D4B4C;stroke-miterlimit:10;}
	.st179{fill:#3E5A5B;}
	.st180{fill:none;stroke:#D87754;stroke-miterlimit:10;}
	.st181{fill:none;stroke:#000000;stroke-miterlimit:10;}
	.st182{fill:#FB8E61;stroke:#D87754;stroke-miterlimit:10;}
	.st183{fill:#E6E4E9;}
	.st184{fill:#BDBBBF;}
	.st185{fill:#DEAB30;}
	.st186{fill:#8FA7AA;}
	.st187{fill:none;stroke:#000000;stroke-width:0.5;stroke-miterlimit:10;}
	.st188{fill:#C7C3CD;}
	.st189{fill:none;stroke:#C7C3CD;stroke-miterlimit:10;}
	.st190{fill:#6C8486;}
	.st191{opacity:0.3;fill:#DBF3F3;}
	.st192{fill:#BDC7C8;}
	.st193{fill:#80432D;stroke:#5D2719;stroke-miterlimit:10;}
	.st194{fill:#849091;}
	.st195{fill:#1E1A1A;}
	.st196{fill:#2A8733;}
	.st197{fill:#39B54A;}
	.st198{fill:none;stroke:#C2CBCC;stroke-width:0.5;stroke-miterlimit:10;}
	.st199{fill:none;stroke:#333335;stroke-width:0.25;stroke-miterlimit:10;}
	.st200{fill:none;stroke:#6D6E71;stroke-width:0.25;stroke-miterlimit:10;}
	.st201{fill:none;stroke:#333335;stroke-width:0.15;stroke-miterlimit:10;}
	.st202{fill:#1C2626;stroke:#081919;stroke-miterlimit:10;}
	.st203{fill:none;stroke:#0B1E1D;stroke-width:4;stroke-linecap:round;stroke-miterlimit:10;}
	.st204{opacity:0.89;fill:#FFFFFF;}
	.st205{fill:#5F605F;}
	.st206{opacity:0.89;fill:#5F605F;}
	.st207{opacity:0.25;fill:none;stroke:#040707;stroke-width:0.5;stroke-miterlimit:10;}
	.st208{opacity:0.14;fill:none;stroke:#040707;stroke-width:0.5;stroke-miterlimit:10;}
	.st209{fill:none;stroke:#525256;stroke-width:0.4;stroke-miterlimit:10;}
	.st210{fill:none;stroke:#333335;stroke-width:0.3;stroke-miterlimit:10;}
	.st211{fill:none;stroke:#C2CBCC;stroke-width:0.75;stroke-miterlimit:10;}
	.st212{opacity:0.59;fill:none;stroke:#040707;stroke-width:0.75;stroke-miterlimit:10;}
	.st213{fill:none;stroke:#C2CBCC;stroke-width:3;stroke-miterlimit:10;}
	.st214{fill:none;stroke:#040707;stroke-width:0.75;stroke-miterlimit:10;}
	.st215{fill:none;stroke:#040707;stroke-width:0.5;stroke-miterlimit:10;}
	.st216{fill:none;stroke:#0E0E0F;stroke-width:0.6;stroke-miterlimit:10;}
	.st217{fill:none;stroke:#333335;stroke-width:0.4;stroke-miterlimit:10;}
	.st218{fill:#040707;}
	.st219{opacity:0.68;}
	.st220{opacity:0.59;}
	.st221{fill:#CA992D;}
	.st222{fill:#BFC9CA;}
	.st223{opacity:0.49;}
	.st224{display:inline;}
	.st225{display:inline;opacity:0.59;}
	.st226{display:inline;opacity:0.49;}
	.st227{display:inline;opacity:0.22;}
	.st228{fill:#585959;}
	.st229{fill:#8E999A;}
	.st230{display:inline;opacity:0.11;}
	.st231{display:inline;fill:#1C75BC;}
	.st232{clip-path:url(#SVGID_34_);fill:#1C75BC;}
	.st233{fill:#0D1414;}
	.st234{fill:url(#SVGID_37_);stroke:#E3E1E5;stroke-miterlimit:10;}
	.st235{fill:url(#SVGID_38_);stroke:#E3E1E5;stroke-miterlimit:10;}
	.st236{fill:url(#SVGID_39_);stroke:#E3E1E5;stroke-miterlimit:10;}
	.st237{clip-path:url(#SVGID_41_);fill:#1D75BA;}
	.st238{clip-path:url(#SVGID_43_);fill:#1D75BA;}
	.st239{fill:url(#SVGID_44_);stroke:#E3E1E5;stroke-miterlimit:10;}
	.st240{fill:url(#SVGID_45_);stroke:#E3E1E5;stroke-miterlimit:10;}
	.st241{fill:url(#SVGID_46_);stroke:#E3E1E5;stroke-miterlimit:10;}
	.st242{fill:#2F2F2F;}
	.st243{fill:none;stroke:#020202;stroke-miterlimit:10;}
	.st244{opacity:0.5;fill:none;stroke:#020202;stroke-miterlimit:10;}
	.st245{opacity:0.2;fill:none;stroke:#020202;stroke-miterlimit:10;}
	.st246{fill:#7BA396;}
	.st247{fill:#0F3F11;}
	.st248{fill:#18561D;}
	.st249{fill:#114413;}
	.st250{fill:none;stroke:#1C2626;stroke-miterlimit:10;}
	.st251{fill:#B4202F;}
	.st252{fill:#DAE1E1;}
	.st253{fill:#F7F6F7;}
	.st254{fill:#404242;}
	.st255{fill:#C9283E;}
	.st256{fill:#2B5455;}
	.st257{fill:none;stroke:#1F0E11;stroke-width:0.75;stroke-miterlimit:10;}
	.st258{fill:#839C8D;}
	.st259{fill:#C0CACB;}
	.st260{fill:#444C4C;}
	.st261{fill:url(#SVGID_47_);}
	.st262{fill:none;stroke:#F81937;stroke-miterlimit:10;}
	.st263{fill:#471118;}
	.st264{opacity:0.3;fill:#DDF5F5;}
	.st265{fill:#959D9D;}
	.st266{fill:#99A6A7;}
	.st267{fill:#1C75BA;}
	.st268{fill:#60121D;}
	.st269{fill:#1C75B8;}
	.st270{fill:#0B1F40;}
	.st271{fill:#0E285E;}
	.st272{fill:#F5F4F5;}
	.st273{fill:#D8DFDF;}
	.st274{fill:#BEC8C9;}
	.st275{fill:#B2202F;}
	.st276{fill:#F9FAFB;}
	.st277{fill:#DB5C22;}
	.st278{fill:#97A4A5;}
	.st279{clip-path:url(#SVGID_49_);fill:#1C75B8;}
	.st280{clip-path:url(#SVGID_51_);fill:#1C75B8;}
	.st281{clip-path:url(#SVGID_53_);fill:#1C75B8;}
	.st282{fill:url(#SVGID_54_);}
	.st283{display:inline;opacity:0.41;}
	.st284{fill:#EFEDED;}
	.st285{fill:#FCFAFB;}
	.st286{clip-path:url(#SVGID_56_);fill:#1D75BA;}
	.st287{clip-path:url(#SVGID_58_);fill:#1D75BA;}
	.st288{fill:none;stroke:#515151;stroke-miterlimit:10;}
</style>
<g id="Sketch" class="st0">
</g>
<g id="Sky">
</g>
<g id="Layer_14">
</g>
<g id="water">
	<g id="Turbine_Farm">
	</g>
	<g id="ROV">
	</g>
</g>
<g id="Fish">
</g>
<g id="Water_turbine">
</g>
<g id="Point_Absorber">
</g>
<g id="Layer_19">
</g>
<g id="Layer_10">
</g>
<g id="UnderWater_Turbine">
</g>
<g id="Power_Station">
</g>
<g id="Boat">
</g>
<g id="Layer_16">
</g>
<g id="Layer_9">
</g>
<g id="Layer_23">
</g>
<g id="Layer_8">
</g>
<g id="Layer_12">
</g>
<g id="Layer_4">
</g>
<g id="Layer_2">
</g>
<g id="City_and_Lighthouse">
</g>
<g id="Train">
</g>
<g id="Telegraph_wires">
</g>
<g id="Layer_7">
</g>
<g id="Dockyard">
</g>
<g id="Front_Hill_x1">
</g>
<g id="Clouds__x28_Front_x29_">
</g>
<g id="Electric_Pylons">
</g>
<g id="Wind_Turbine">
</g>
<g id="Layer_18">
</g>
<g id="Layer_22">
</g>
<g id="Layer_24">
</g>
<g id="Layer_26">
</g>
<g id="Layer_29">
</g>
<g id="Sub_station">
</g>
<g id="Tital_Float_device">
</g>
<g id="Layer_32">
</g>
<g id="Building_Satelite_Dish">
</g>
<g id="Layer_37">
</g>
<g id="Seaweed">
</g>
<g id="Seabed_Ship">
	<g>
		<rect x="65.95" y="91.39" class="st250" width="45.35" height="5.58"/>
		<rect x="65.95" y="91.39" class="st250" width="17.45" height="5.58"/>
		<rect x="83.4" y="91.39" class="st250" width="17.45" height="5.58"/>
		<polygon class="st251" points="209.43,115.87 232.16,89.95 232.16,82.31 131.05,82.31 131.05,96.96 0,96.96 0,115.87 		"/>
		<polygon class="st252" points="232.16,82.31 207.09,69.14 131.05,69.14 131.05,82.31 		"/>
		<polyline class="st251" points="222.65,77.31 131.05,77.31 131.05,82.31 232.16,82.31 		"/>
		<rect x="123.62" y="55.97" class="st253" width="80.71" height="13.17"/>
		<rect x="123.62" y="68.5" class="st254" width="80.71" height="0.64"/>
		<polyline class="st255" points="131.05,86.13 232.16,86.13 232.16,82.31 222.65,77.31 131.05,77.31 131.05,87.51 		"/>
		<rect x="131.05" y="46.07" class="st252" width="55.1" height="9.89"/>
		<polygon class="st256" points="143.48,40.89 178.42,40.89 181.6,36.18 143.48,36.18 		"/>
		<line class="st257" x1="150.38" y1="36.18" x2="150.38" y2="40.89"/>
		<line class="st257" x1="157.62" y1="36.18" x2="157.62" y2="40.89"/>
		<line class="st257" x1="164.57" y1="36.18" x2="164.57" y2="40.89"/>
		<line class="st257" x1="171.81" y1="36.18" x2="171.81" y2="40.89"/>
		<polygon class="st253" points="140.35,32.24 180.43,32.24 182.96,36.18 140.35,36.18 		"/>
		<rect x="150.89" y="30.74" class="st258" width="3.91" height="1.5"/>
		<path class="st253" d="M156.63,30.74h-7.57v-4.11c0-1.91,1.55-3.46,3.46-3.46h0.64c1.91,0,3.46,1.55,3.46,3.46V30.74z"/>
		<polygon class="st259" points="163.05,32.24 163.05,0 167.27,21.66 166.1,32.24 		"/>
		<rect x="160.05" y="20.97" class="st253" width="13.49" height="1.96"/>
		<rect x="160.05" y="14.72" class="st253" width="8.76" height="0.98"/>
		<rect x="160.05" y="7.48" class="st253" width="5.9" height="0.98"/>
		<rect x="143.48" y="40.89" class="st253" width="35.37" height="5.19"/>
		<rect x="137.42" y="49.49" class="st50" width="0.85" height="2.87"/>
		<rect x="146.47" y="49.49" class="st50" width="0.85" height="2.87"/>
		<rect x="155.52" y="49.49" class="st50" width="0.85" height="2.87"/>
		<rect x="164.57" y="49.49" class="st50" width="0.85" height="2.87"/>
		<rect x="173.62" y="49.49" class="st50" width="0.85" height="2.87"/>
		<rect x="128.38" y="62.13" class="st50" width="0.85" height="1.12"/>
		<rect x="137.42" y="62.13" class="st50" width="0.85" height="1.12"/>
		<rect x="146.47" y="62.13" class="st50" width="0.85" height="1.12"/>
		<rect x="155.52" y="62.13" class="st50" width="0.85" height="1.12"/>
		<rect x="164.57" y="62.13" class="st50" width="0.85" height="1.12"/>
		<rect x="164.57" y="62.13" class="st50" width="0.85" height="1.12"/>
		<rect x="173.62" y="62.13" class="st50" width="0.85" height="1.12"/>
		<rect x="182.66" y="62.13" class="st50" width="0.85" height="1.12"/>
		<rect x="191.71" y="62.13" class="st50" width="0.85" height="1.12"/>
		<rect x="137.42" y="71.79" class="st260" width="0.85" height="2.87"/>
		<rect x="146.47" y="71.79" class="st260" width="0.85" height="2.87"/>
		<rect x="155.52" y="71.79" class="st260" width="0.85" height="2.87"/>
		<rect x="164.57" y="71.79" class="st260" width="0.85" height="2.87"/>
		<rect x="173.62" y="71.79" class="st50" width="0.85" height="2.87"/>
		<rect x="173.62" y="71.79" class="st260" width="0.85" height="2.87"/>
		<rect x="182.66" y="71.79" class="st260" width="0.85" height="2.87"/>
		<rect x="191.71" y="71.79" class="st260" width="0.85" height="2.87"/>
		<rect x="200.76" y="71.79" class="st260" width="0.85" height="2.87"/>
		<polyline class="st253" points="52.06,67.28 19.48,67.28 19.48,73.18 52.06,75.72 		"/>
		<rect x="111.3" y="65.74" class="st255" width="19.75" height="31.22"/>
		<polygon class="st253" points="21.75,68.34 38.63,79.84 36.72,82.72 17.63,72.53 		"/>
		<rect x="47.84" y="71.5" class="st252" width="8.44" height="19.89"/>
		<rect x="43.33" y="91.39" class="st50" width="17.45" height="5.58"/>
		<circle class="st259" cx="52.06" cy="71.5" r="4.22"/>
		<rect x="43.33" y="71.5" class="st259" width="4.5" height="5.9"/>
		<rect x="43.33" y="72.4" class="st256" width="2.25" height="2.95"/>
		<circle class="st259" cx="19.48" cy="70.23" r="2.95"/>
		<circle class="st259" cx="37.58" cy="81.09" r="1.64"/>
		<polygon class="st50" points="23.26,75.53 26.76,77.4 26.76,93.7 23.26,93.7 		"/>
		<rect x="21.89" y="93.7" class="st255" width="6.24" height="3.27"/>
		<linearGradient id="SVGID_1_" gradientUnits="userSpaceOnUse" x1="211.7064" y1="88.2457" x2="222.4459" y2="118.3159">
			<stop  offset="0" style="stop-color:#000000;stop-opacity:0.4"/>
			<stop  offset="0.3284" style="stop-color:#B4202F;stop-opacity:0.7"/>
		</linearGradient>
		<path class="st1" d="M198.97,103.17c12.74-11.95,31.06-11.79,31.06-11.79l0.87,0l-21.47,24.48L198.97,103.17z"/>
		<polygon class="st253" points="212.14,71.79 223.47,77.74 223.47,71.79 		"/>
		<line class="st262" x1="5.31" y1="104.4" x2="131.05" y2="104.4"/>
		<polygon class="st263" points="0,111.19 213.53,111.19 209.43,115.87 0,115.87 		"/>
		<polygon class="st264" points="148.17,40.88 144.66,40.88 146.45,36.18 149.97,36.18 		"/>
		<polygon class="st264" points="143.89,40.89 143.63,40.89 145.42,36.19 145.69,36.19 		"/>
		<polygon class="st264" points="155.26,40.88 151.75,40.88 153.54,36.18 157.06,36.18 		"/>
		<polygon class="st264" points="150.98,40.89 150.72,40.89 152.51,36.19 152.78,36.19 		"/>
		<polygon class="st264" points="162.5,40.88 158.99,40.88 160.78,36.18 164.3,36.18 		"/>
		<polygon class="st264" points="158.22,40.89 157.96,40.89 159.75,36.19 160.02,36.19 		"/>
		<polygon class="st264" points="169.54,40.88 166.02,40.88 167.82,36.18 171.33,36.18 		"/>
		<polygon class="st264" points="165.26,40.89 164.99,40.89 166.79,36.19 167.05,36.19 		"/>
		<polygon class="st264" points="176.75,40.88 173.23,40.88 175.02,36.18 178.54,36.18 		"/>
		<polygon class="st264" points="172.47,40.89 172.2,40.89 174,36.19 174.26,36.19 		"/>
		<rect x="123.62" y="55.33" class="st254" width="62.53" height="0.64"/>
		<rect x="131.05" y="45.38" class="st265" width="55.1" height="0.64"/>
		<circle class="st266" cx="52.06" cy="71.5" r="2.08"/>
		<polygon class="st264" points="44.95,75.35 43.7,75.35 44.33,72.4 45.58,72.4 		"/>
		<polygon class="st264" points="43.42,75.36 43.33,75.36 43.97,72.41 44.06,72.41 		"/>
		<rect x="137.42" y="81.19" class="st50" width="0.85" height="1.12"/>
		<rect x="146.47" y="81.19" class="st50" width="0.85" height="1.12"/>
		<rect x="155.52" y="81.19" class="st50" width="0.85" height="1.12"/>
		<rect x="164.57" y="81.19" class="st50" width="0.85" height="1.12"/>
		<rect x="173.62" y="81.19" class="st50" width="0.85" height="1.12"/>
		<rect x="182.66" y="81.19" class="st50" width="0.85" height="1.12"/>
		<rect x="191.71" y="81.19" class="st50" width="0.85" height="1.12"/>
		<rect x="200.76" y="81.19" class="st50" width="0.85" height="1.12"/>
		<rect x="209.81" y="81.19" class="st50" width="0.85" height="1.12"/>
		<rect x="218.86" y="81.19" class="st50" width="0.85" height="1.12"/>
		<rect x="137.42" y="89.95" class="st268" width="0.85" height="2.87"/>
		<rect x="146.47" y="89.95" class="st268" width="0.85" height="2.87"/>
		<rect x="155.52" y="89.95" class="st268" width="0.85" height="2.87"/>
		<rect x="164.57" y="89.95" class="st268" width="0.85" height="2.87"/>
		<rect x="173.62" y="89.95" class="st268" width="0.85" height="2.87"/>
	</g>
</g>
<g id="fishing_Boat">
</g>
<g id="Grid" class="st0">
</g>
<g id="Arrow_Guide">
</g>
<g id="Layer_47">
</g>
<g id="Layer_46">
</g>
</svg>
