<?xml version="1.0" encoding="utf-8"?>
<!-- Generator: Adobe Illustrator 25.3.1, SVG Export Plug-In . SVG Version: 6.00 Build 0)  -->
<svg version="1.1" xmlns="http://www.w3.org/2000/svg" xmlns:xlink="http://www.w3.org/1999/xlink" x="0px" y="0px"
	 viewBox="0 0 212.99 684.73" style="enable-background:new 0 0 212.99 684.73;" xml:space="preserve">
<style type="text/css">
	.st0{display:none;}
	.st1{fill:url(#SVGID_1_);}
	.st2{opacity:0.56;fill:url(#Sky_Gradient_2_);}
	.st3{fill:#95E8CF;}
	.st4{opacity:0.56;fill:url(#Sky_Gradient_3_);}
	.st5{fill:#7B797C;}
	.st6{fill:#FFFFFF;}
	.st7{fill:#C9C5CF;}
	.st8{fill:#BEBBBF;}
	.st9{fill:url(#SVGID_2_);stroke:#E3E1E5;stroke-miterlimit:10;}
	.st10{fill:url(#SVGID_3_);stroke:#E3E1E5;stroke-miterlimit:10;}
	.st11{fill:url(#SVGID_4_);stroke:#E3E1E5;stroke-miterlimit:10;}
	.st12{fill:#D3D2D6;}
	.st13{fill:#E7E4E9;stroke:#F6F5F5;stroke-miterlimit:10;}
	.st14{fill:#E7E4E9;}
	.st15{opacity:0.69;fill:#FFFFFF;}
	.st16{fill:#EFBE34;}
	.st17{fill:#C60029;}
	.st18{fill:#A20024;}
	.st19{fill:#E0AD30;}
	.st20{clip-path:url(#SVGID_6_);fill:#1D75BA;}
	.st21{opacity:0.36;fill:#E4F9F2;}
	.st22{fill:#00AEEF;}
	.st23{fill:#081F23;}
	.st24{fill:#83B5A5;}
	.st25{fill:#1C2C2D;}
	.st26{opacity:0.07;}
	.st27{fill:#E4F9F2;}
	.st28{opacity:0.94;fill:#1C2626;}
	.st29{opacity:0.05;}
	.st30{fill:#1B5668;}
	.st31{fill:#0F343D;}
	.st32{fill:#B5BB6A;}
	.st33{fill:#979952;}
	.st34{fill:#565E66;}
	.st35{fill:#475056;}
	.st36{fill:#A57C28;}
	.st37{fill:#A6ACB2;}
	.st38{fill:#184954;}
	.st39{fill:none;stroke:#0F404C;stroke-miterlimit:10;}
	.st40{fill:#1C75BC;}
	.st41{fill:#838451;}
	.st42{fill:#707041;}
	.st43{fill:#164854;}
	.st44{fill:none;stroke:#0B1E1D;stroke-width:4;stroke-miterlimit:10;}
	.st45{opacity:0.35;}
	.st46{fill:#0090D4;}
	.st47{fill:url(#SVGID_7_);}
	.st48{fill:none;stroke:#0E0E0F;stroke-width:0.3;stroke-miterlimit:10;}
	.st49{fill:#6DA3A3;}
	.st50{fill:#1C2626;}
	.st51{fill:#E2AF30;}
	.st52{fill:#F4C762;}
	.st53{fill:#8E9296;}
	.st54{fill:#2A4142;}
	.st55{opacity:0.27;}
	.st56{fill:none;stroke:#FCFCFC;stroke-width:0.75;stroke-miterlimit:10;}
	.st57{opacity:0.18;}
	.st58{fill:none;stroke:#FCFCFC;stroke-width:0.5;stroke-miterlimit:10;}
	.st59{opacity:0.7;fill:none;stroke:#FCFCFC;stroke-width:0.75;stroke-miterlimit:10;}
	.st60{opacity:0.95;}
	.st61{opacity:0.8;}
	.st62{opacity:0.7;}
	.st63{opacity:0.4;}
	.st64{fill:#B3B96A;}
	.st65{fill:#959753;}
	.st66{fill:#174954;}
	.st67{fill:#020202;}
	.st68{fill:#2D2B25;}
	.st69{fill:#C69A2C;}
	.st70{fill:#F1C033;}
	.st71{fill:#E2DDCF;}
	.st72{opacity:0.4;fill:none;stroke:#FFFFFF;stroke-width:0.25;stroke-miterlimit:10;}
	.st73{opacity:0.6;fill:none;stroke:#FFFFFF;stroke-width:0.25;stroke-miterlimit:10;}
	.st74{fill:none;stroke:#020202;stroke-width:0.25;stroke-miterlimit:10;}
	.st75{opacity:0.76;}
	.st76{fill:#CBC7D1;}
	.st77{fill:#BFBDC1;}
	.st78{fill:url(#SVGID_8_);stroke:#E3E1E5;stroke-miterlimit:10;}
	.st79{fill:url(#SVGID_9_);stroke:#E3E1E5;stroke-miterlimit:10;}
	.st80{fill:url(#SVGID_10_);stroke:#E3E1E5;stroke-miterlimit:10;}
	.st81{fill:#D5D4D8;}
	.st82{fill:#E8E6EB;stroke:#F9F7F7;stroke-miterlimit:10;}
	.st83{fill:#E8E6EB;}
	.st84{fill:url(#SVGID_11_);stroke:#E3E1E5;stroke-miterlimit:10;}
	.st85{fill:url(#SVGID_12_);stroke:#E3E1E5;stroke-miterlimit:10;}
	.st86{fill:url(#SVGID_13_);stroke:#E3E1E5;stroke-miterlimit:10;}
	.st87{fill:url(#SVGID_14_);stroke:#E3E1E5;stroke-miterlimit:10;}
	.st88{fill:url(#SVGID_15_);stroke:#E3E1E5;stroke-miterlimit:10;}
	.st89{fill:url(#SVGID_16_);stroke:#E3E1E5;stroke-miterlimit:10;}
	.st90{opacity:0.63;}
	.st91{opacity:0.76;fill:#1C2626;}
	.st92{opacity:0.65;fill:#1C2626;}
	.st93{opacity:0.79;fill:#1C2626;}
	.st94{opacity:0.72;fill:#1C2626;}
	.st95{opacity:0.75;fill:#1C2626;}
	.st96{opacity:0.25;}
	.st97{fill:#F4D790;}
	.st98{fill:#EAB84B;}
	.st99{fill:#2B393A;}
	.st100{fill:#1B5B20;}
	.st101{clip-path:url(#SVGID_18_);fill:#39B54A;}
	.st102{clip-path:url(#SVGID_18_);fill:#00AEEF;}
	.st103{clip-path:url(#SVGID_18_);fill:#1C75BC;}
	.st104{clip-path:url(#SVGID_18_);fill:#6D6E71;}
	.st105{fill:#298432;}
	.st106{opacity:0.39;fill:#081B1E;}
	.st107{fill:#1A661F;}
	.st108{opacity:0.13;}
	.st109{opacity:0.8;fill:#8C202E;}
	.st110{fill:#8BBCAD;}
	.st111{fill:#BCC2C3;}
	.st112{fill:#AAAEB3;}
	.st113{fill:#8D8793;}
	.st114{fill:#BACBD0;}
	.st115{fill:#ADBDC5;}
	.st116{fill:#6D6E78;}
	.st117{fill:#858790;}
	.st118{fill:#909498;}
	.st119{fill:#AD2A55;}
	.st120{fill:url(#SVGID_19_);}
	.st121{fill:url(#SVGID_20_);}
	.st122{fill:url(#SVGID_21_);}
	.st123{fill:#8D888D;}
	.st124{fill:#E8E6EB;stroke:#CEC8C8;stroke-miterlimit:10;}
	.st125{fill:url(#SVGID_22_);}
	.st126{fill:url(#SVGID_23_);}
	.st127{fill:url(#SVGID_24_);}
	.st128{fill:url(#SVGID_25_);}
	.st129{fill:url(#SVGID_26_);}
	.st130{fill:url(#SVGID_27_);}
	.st131{fill:url(#SVGID_28_);}
	.st132{fill:url(#SVGID_29_);}
	.st133{fill:url(#SVGID_30_);}
	.st134{fill:#93ABAE;}
	.st135{fill:none;stroke:#C2CBCC;stroke-miterlimit:10;}
	.st136{fill:none;}
	.st137{fill:none;stroke:#E3E3E3;stroke-miterlimit:10;}
	.st138{fill:#121919;}
	.st139{fill:#315456;}
	.st140{fill:none;stroke:#333335;stroke-miterlimit:10;}
	.st141{fill:#1BCBDD;}
	.st142{fill:#C2CBCC;}
	.st143{fill:#0F1414;}
	.st144{fill:none;stroke:#AD1F2A;stroke-miterlimit:10;}
	.st145{fill:#869293;}
	.st146{fill:#324446;}
	.st147{fill:#233F3F;}
	.st148{fill:#EDEAB7;}
	.st149{fill:#577A7C;}
	.st150{fill:#3B5B5B;}
	.st151{fill:none;stroke:#2B393A;stroke-miterlimit:10;}
	.st152{fill:#5C80B2;}
	.st153{opacity:0.3;fill:#DFF7F7;}
	.st154{opacity:0.3;fill:#FFFFFF;}
	.st155{opacity:0.13;fill:#DFF7F7;}
	.st156{opacity:0.46;}
	.st157{fill:#1A2323;}
	.st158{fill:#7E9799;}
	.st159{fill:#3F5B5B;}
	.st160{opacity:0.2;fill:#DFF7F7;}
	.st161{opacity:0.1;fill:#DFF7F7;}
	.st162{fill:#4A6B93;}
	.st163{fill:#3F5556;}
	.st164{fill:#C49623;}
	.st165{opacity:0.43;fill:#1C2C2D;}
	.st166{opacity:0.12;fill:none;stroke:#1C2C2D;stroke-width:0.5;stroke-miterlimit:10;}
	.st167{opacity:0.11;fill:#DFF7F7;}
	.st168{fill:#F7F5F6;}
	.st169{fill:#AD1F2A;}
	.st170{opacity:0.3;fill:none;stroke:#0E0E0F;stroke-width:0.3;stroke-miterlimit:10;}
	.st171{fill:#869F2B;}
	.st172{fill:#91A9AC;}
	.st173{fill:#3D4B4C;}
	.st174{fill:#EDBC34;}
	.st175{fill:#567A7C;}
	.st176{fill:#FB8E61;}
	.st177{clip-path:url(#SVGID_32_);}
	.st178{fill:none;stroke:#3D4B4C;stroke-miterlimit:10;}
	.st179{fill:#3E5A5B;}
	.st180{fill:none;stroke:#D87754;stroke-miterlimit:10;}
	.st181{fill:none;stroke:#000000;stroke-miterlimit:10;}
	.st182{fill:#FB8E61;stroke:#D87754;stroke-miterlimit:10;}
	.st183{fill:#E6E4E9;}
	.st184{fill:#BDBBBF;}
	.st185{fill:#DEAB30;}
	.st186{fill:#8FA7AA;}
	.st187{fill:none;stroke:#000000;stroke-width:0.5;stroke-miterlimit:10;}
	.st188{fill:#C7C3CD;}
	.st189{fill:none;stroke:#C7C3CD;stroke-miterlimit:10;}
	.st190{fill:#6C8486;}
	.st191{opacity:0.3;fill:#DBF3F3;}
	.st192{fill:#BDC7C8;}
	.st193{fill:#80432D;stroke:#5D2719;stroke-miterlimit:10;}
	.st194{fill:#849091;}
	.st195{fill:#1E1A1A;}
	.st196{fill:#2A8733;}
	.st197{fill:#39B54A;}
	.st198{fill:none;stroke:#C2CBCC;stroke-width:0.5;stroke-miterlimit:10;}
	.st199{fill:none;stroke:#333335;stroke-width:0.25;stroke-miterlimit:10;}
	.st200{fill:none;stroke:#6D6E71;stroke-width:0.25;stroke-miterlimit:10;}
	.st201{fill:none;stroke:#333335;stroke-width:0.15;stroke-miterlimit:10;}
	.st202{fill:#1C2626;stroke:#081919;stroke-miterlimit:10;}
	.st203{fill:none;stroke:#0B1E1D;stroke-width:4;stroke-linecap:round;stroke-miterlimit:10;}
	.st204{opacity:0.89;fill:#FFFFFF;}
	.st205{fill:#5F605F;}
	.st206{opacity:0.89;fill:#5F605F;}
	.st207{opacity:0.25;fill:none;stroke:#040707;stroke-width:0.5;stroke-miterlimit:10;}
	.st208{opacity:0.14;fill:none;stroke:#040707;stroke-width:0.5;stroke-miterlimit:10;}
	.st209{fill:none;stroke:#525256;stroke-width:0.4;stroke-miterlimit:10;}
	.st210{fill:none;stroke:#333335;stroke-width:0.3;stroke-miterlimit:10;}
	.st211{fill:none;stroke:#C2CBCC;stroke-width:0.75;stroke-miterlimit:10;}
	.st212{opacity:0.59;fill:none;stroke:#040707;stroke-width:0.75;stroke-miterlimit:10;}
	.st213{fill:none;stroke:#C2CBCC;stroke-width:3;stroke-miterlimit:10;}
	.st214{fill:none;stroke:#040707;stroke-width:0.75;stroke-miterlimit:10;}
	.st215{fill:none;stroke:#040707;stroke-width:0.5;stroke-miterlimit:10;}
	.st216{fill:none;stroke:#0E0E0F;stroke-width:0.6;stroke-miterlimit:10;}
	.st217{fill:none;stroke:#333335;stroke-width:0.4;stroke-miterlimit:10;}
	.st218{fill:#040707;}
	.st219{opacity:0.68;}
	.st220{opacity:0.59;}
	.st221{fill:#CA992D;}
	.st222{fill:#BFC9CA;}
	.st223{opacity:0.49;}
	.st224{display:inline;}
	.st225{display:inline;opacity:0.59;}
	.st226{display:inline;opacity:0.49;}
	.st227{display:inline;opacity:0.22;}
	.st228{fill:#585959;}
	.st229{fill:#8E999A;}
	.st230{display:inline;opacity:0.11;}
	.st231{display:inline;fill:#1C75BC;}
	.st232{clip-path:url(#SVGID_34_);fill:#1C75BC;}
	.st233{fill:#0D1414;}
	.st234{fill:url(#SVGID_37_);stroke:#E3E1E5;stroke-miterlimit:10;}
	.st235{fill:url(#SVGID_38_);stroke:#E3E1E5;stroke-miterlimit:10;}
	.st236{fill:url(#SVGID_39_);stroke:#E3E1E5;stroke-miterlimit:10;}
	.st237{clip-path:url(#SVGID_41_);fill:#1D75BA;}
	.st238{clip-path:url(#SVGID_43_);fill:#1D75BA;}
	.st239{fill:url(#SVGID_44_);stroke:#E3E1E5;stroke-miterlimit:10;}
	.st240{fill:url(#SVGID_45_);stroke:#E3E1E5;stroke-miterlimit:10;}
	.st241{fill:url(#SVGID_46_);stroke:#E3E1E5;stroke-miterlimit:10;}
	.st242{fill:#2F2F2F;}
	.st243{fill:none;stroke:#020202;stroke-miterlimit:10;}
	.st244{opacity:0.5;fill:none;stroke:#020202;stroke-miterlimit:10;}
	.st245{opacity:0.2;fill:none;stroke:#020202;stroke-miterlimit:10;}
	.st246{fill:#7BA396;}
	.st247{fill:#0F3F11;}
	.st248{fill:#18561D;}
	.st249{fill:#114413;}
	.st250{fill:none;stroke:#1C2626;stroke-miterlimit:10;}
	.st251{fill:#B4202F;}
	.st252{fill:#DAE1E1;}
	.st253{fill:#F7F6F7;}
	.st254{fill:#404242;}
	.st255{fill:#C9283E;}
	.st256{fill:#2B5455;}
	.st257{fill:none;stroke:#1F0E11;stroke-width:0.75;stroke-miterlimit:10;}
	.st258{fill:#839C8D;}
	.st259{fill:#C0CACB;}
	.st260{fill:#444C4C;}
	.st261{fill:url(#SVGID_47_);}
	.st262{fill:none;stroke:#F81937;stroke-miterlimit:10;}
	.st263{fill:#471118;}
	.st264{opacity:0.3;fill:#DDF5F5;}
	.st265{fill:#959D9D;}
	.st266{fill:#99A6A7;}
	.st267{fill:#1C75BA;}
	.st268{fill:#60121D;}
	.st269{fill:#1C75B8;}
	.st270{fill:#0B1F40;}
	.st271{fill:#0E285E;}
	.st272{fill:#F5F4F5;}
	.st273{fill:#D8DFDF;}
	.st274{fill:#BEC8C9;}
	.st275{fill:#B2202F;}
	.st276{fill:#F9FAFB;}
	.st277{fill:#DB5C22;}
	.st278{fill:#97A4A5;}
	.st279{clip-path:url(#SVGID_49_);fill:#1C75B8;}
	.st280{clip-path:url(#SVGID_51_);fill:#1C75B8;}
	.st281{clip-path:url(#SVGID_53_);fill:#1C75B8;}
	.st282{fill:url(#SVGID_54_);}
	.st283{display:inline;opacity:0.41;}
	.st284{fill:#EFEDED;}
	.st285{fill:#FCFAFB;}
	.st286{clip-path:url(#SVGID_56_);fill:#1D75BA;}
	.st287{clip-path:url(#SVGID_58_);fill:#1D75BA;}
	.st288{fill:none;stroke:#515151;stroke-miterlimit:10;}
</style>
<g id="Sketch" class="st0">
</g>
<g id="Sky">
</g>
<g id="Layer_14">
</g>
<g id="water">
	<g id="Turbine_Farm">
	</g>
	<g id="ROV">
	</g>
	<g id="Fixed_Turbine_Bottom_2_">
		<g>
			<path class="st19" d="M144.33,530.51H77.77V350.43h66.56V530.51z M81.21,527.07h59.68v-173.2H81.21V527.07z"/>
		</g>
		<g>
			<polygon class="st19" points="111.34,385.14 78.28,352.22 80.71,349.78 111.34,380.28 140.74,350.88 143.17,353.31 			"/>
		</g>
		<g>
			<path class="st19" d="M111.34,443l-31.36-31.36l31.36-31.36l31.36,31.36L111.34,443z M84.85,411.64l26.49,26.49l26.49-26.49
				l-26.49-26.49L84.85,411.64z"/>
		</g>
		<g>
			<path class="st19" d="M111.34,501.36L79.98,470l31.36-31.36L142.7,470L111.34,501.36z M84.85,470l26.49,26.49L137.83,470
				l-26.49-26.49L84.85,470z"/>
		</g>
		<g>
			<polygon class="st19" points="139.05,529.08 111.34,501.37 83.63,529.08 81.2,526.64 111.34,496.5 141.48,526.64 			"/>
		</g>
		<g>
			<polygon class="st19" points="144.33,684.73 140.89,684.73 140.89,530.45 81.21,530.45 81.21,684.73 77.77,684.73 77.77,527.01 
				144.33,527.01 			"/>
		</g>
		<g>
			<polygon class="st19" points="111.34,561.72 78.28,528.8 80.71,526.36 111.34,556.86 140.74,527.46 143.17,529.89 			"/>
		</g>
		<g>
			<path class="st19" d="M111.34,619.58l-31.36-31.36l31.36-31.36l31.36,31.36L111.34,619.58z M84.85,588.22l26.49,26.49
				l26.49-26.49l-26.49-26.49L84.85,588.22z"/>
		</g>
		<g>
			<polygon class="st19" points="141.4,650.15 111.34,620.09 81.28,650.15 78.85,647.72 111.34,615.23 143.83,647.72 			"/>
		</g>
		<polygon class="st19" points="119.6,353.87 137.75,353.87 119.6,372.01 119.6,376.88 140.89,355.59 140.89,409.84 119.6,388.55 
			119.6,393.41 137.83,411.64 119.6,429.87 119.6,434.73 140.89,413.44 140.89,468.2 119.6,446.91 119.6,451.77 137.83,470 
			119.6,488.23 119.6,493.1 140.89,471.81 140.89,526.06 119.6,504.77 119.6,509.63 136.98,527.01 119.6,527.01 119.6,530.51 
			137.69,530.51 119.6,548.59 119.6,553.46 140.89,532.17 140.89,586.42 119.6,565.13 119.6,569.99 137.83,588.22 119.6,606.45 
			119.6,611.31 140.89,590.02 140.89,644.78 119.6,623.49 119.6,628.35 140.89,649.64 140.89,684.73 144.33,684.73 144.33,530.51 
			144.33,527.01 144.33,350.43 119.6,350.43 		"/>
		<path class="st19" d="M77.77,667.36c0,0,1.37,1.31,3.44,0v17.37h-3.44V667.36z"/>
		<path class="st19" d="M140.89,667.36c0,0,1.37,1.31,3.44,0v17.37h-3.44V667.36z"/>
	</g>
</g>
<g id="Fish">
</g>
<g id="Water_turbine">
</g>
<g id="Point_Absorber">
</g>
<g id="Layer_19">
</g>
<g id="Layer_10">
</g>
<g id="UnderWater_Turbine">
</g>
<g id="Power_Station">
</g>
<g id="Boat">
</g>
<g id="Layer_16">
</g>
<g id="Layer_9">
</g>
<g id="Layer_23">
</g>
<g id="Layer_8">
</g>
<g id="Layer_12">
</g>
<g id="Layer_4">
</g>
<g id="Layer_2">
</g>
<g id="City_and_Lighthouse">
</g>
<g id="Train">
</g>
<g id="Telegraph_wires">
</g>
<g id="Layer_7">
</g>
<g id="Dockyard">
</g>
<g id="Front_Hill_x1">
</g>
<g id="Clouds__x28_Front_x29_">
</g>
<g id="Electric_Pylons">
</g>
<g id="Wind_Turbine">
</g>
<g id="Layer_18">
</g>
<g id="Layer_22">
</g>
<g id="Layer_24">
</g>
<g id="Layer_26">
</g>
<g id="Layer_29">
</g>
<g id="Sub_station">
</g>
<g id="Tital_Float_device">
</g>
<g id="Layer_32">
	<g>
		<circle class="st5" cx="110.48" cy="120.22" r="11.29"/>
		<g>
			<polygon class="st6" points="124.01,301.55 98.3,301.55 106.95,120.57 115.87,120.57 			"/>
			<polygon class="st7" points="115.38,301.55 112.12,120.57 115.87,120.57 124.01,301.55 			"/>
			<rect x="96.12" y="301.55" class="st8" width="29.69" height="5.27"/>
		</g>
		<g>
			<path class="st6" d="M105.85,118.48l2.67-114.4c0.05-1.99,1.67-3.58,3.66-3.58h0c1.83,0,3.38,1.35,3.63,3.16l11.44,82.49
				c0.23,1.63-0.01,3.28-0.69,4.78l-12.4,27.55H105.85z"/>
			<path class="st6" d="M113.3,116.25l97.74,59.51c1.7,1.04,2.26,3.24,1.27,4.96l0,0c-0.91,1.58-2.86,2.25-4.55,1.56l-77.16-31.34
				c-1.52-0.62-2.84-1.65-3.8-2.98l-17.66-24.51L113.3,116.25z"/>
			<linearGradient id="SVGID_1_" gradientUnits="userSpaceOnUse" x1="172.3213" y1="129.4277" x2="150.3937" y2="172.2625">
				<stop  offset="0.4449" style="stop-color:#525252;stop-opacity:0.4"/>
				<stop  offset="0.8694" style="stop-color:#C1C1C1;stop-opacity:0"/>
			</linearGradient>
			<path style="fill:url(#SVGID_1_);stroke:#E3E1E5;stroke-miterlimit:10;" d="M130.59,150.95l77.16,31.34
				c1.69,0.69,3.64,0.02,4.55-1.56l-103.17-57.27l17.66,24.51C127.76,149.29,129.07,150.33,130.59,150.95z"/>
			<path class="st6" d="M106.33,127.35L5.92,182.24c-1.75,0.95-3.94,0.34-4.93-1.38l0,0c-0.91-1.58-0.52-3.6,0.92-4.72l65.72-51.15
				c1.3-1.01,2.85-1.63,4.48-1.8l30.06-3.04L106.33,127.35z"/>
			<linearGradient id="SVGID_2_" gradientUnits="userSpaceOnUse" x1="52.1469" y1="151.4057" x2="44.596" y2="139.3217">
				<stop  offset="0" style="stop-color:#525252;stop-opacity:0.4"/>
				<stop  offset="0.0247" style="stop-color:#575757;stop-opacity:0.3857"/>
				<stop  offset="0.2373" style="stop-color:#858585;stop-opacity:0.2625"/>
				<stop  offset="0.4266" style="stop-color:#A6A6A6;stop-opacity:0.1527"/>
				<stop  offset="0.584" style="stop-color:#BABABA;stop-opacity:0.0615"/>
				<stop  offset="0.6901" style="stop-color:#C1C1C1;stop-opacity:0"/>
			</linearGradient>
			<path class="st9" d="M67.63,124.98L1.91,176.13c-1.44,1.12-1.84,3.14-0.92,4.72l101.18-60.71l-30.06,3.04
				C70.48,123.35,68.93,123.97,67.63,124.98z"/>
			<linearGradient id="SVGID_3_" gradientUnits="userSpaceOnUse" x1="112.1812" y1="59.4905" x2="127.3328" y2="59.4905">
				<stop  offset="0" style="stop-color:#525252;stop-opacity:0.4"/>
				<stop  offset="1" style="stop-color:#C1C1C1;stop-opacity:0"/>
			</linearGradient>
			<path class="st10" d="M127.25,86.15L115.81,3.66c-0.25-1.81-1.8-3.16-3.63-3.16l1.99,117.98l12.4-27.55
				C127.24,89.44,127.48,87.78,127.25,86.15z"/>
			<circle class="st12" cx="110.54" cy="120.07" r="9.9"/>
			<circle class="st13" cx="110.54" cy="120.07" r="7.2"/>
			<circle class="st6" cx="110.54" cy="120.07" r="5.09"/>
			<circle class="st14" cx="110.54" cy="120.07" r="1.64"/>
			<path class="st15" d="M110.37,129.97v-9.9l-5.51,8.23C104.86,128.29,106.6,130.02,110.37,129.97z"/>
			<path class="st15" d="M110.54,110.16v9.9l5.51-8.23C116.05,111.84,114.31,110.11,110.54,110.16z"/>
		</g>
		<g>
			<polyline class="st16" points="128.05,310 80.61,356.14 78.21,353.68 126.38,306.82 			"/>
		</g>
		<g>
			<polyline class="st16" points="95.57,306.83 143.73,353.68 141.33,356.14 93.43,309.55 			"/>
		</g>
		<polygon class="st17" points="99.13,283.92 99.72,271.8 117.98,271.8 118.39,283.92 		"/>
		<polygon class="st18" points="114.8,271.8 115.04,283.92 123.22,283.92 122.67,271.8 		"/>
		<g>
			<polygon class="st16" points="81.1,355.24 77.72,354.58 94.38,306.83 126.9,306.83 144.22,354.58 140.84,355.24 124.07,310.27 
				97.21,310.27 			"/>
		</g>
		<path class="st19" d="M126.9,306.83h-15.93v3.44l11.87,0l-11.87,11.54v4.8l30.36,29.53l1.2-1.23l1.69-0.33L126.9,306.83z
			 M136.34,343.17l1.94,5.21l-24.85-24.17l11.62-11.3"/>
	</g>
</g>
<g id="Building_Satelite_Dish">
</g>
<g id="Layer_37">
</g>
<g id="Seaweed">
</g>
<g id="Seabed_Ship">
</g>
<g id="fishing_Boat">
</g>
<g id="Grid" class="st0">
</g>
<g id="Arrow_Guide">
</g>
<g id="Layer_47">
</g>
<g id="Layer_46">
</g>
</svg>
